<svg xmlns="http://www.w3.org/2000/svg" viewBox="0 0 200 16" preserveAspectRatio="none"><path d="M 1.07 9.92 Q 1.07 9.92 3.34 8.74 5.61 7.55 7.19 7.32 8.76 7.09 11.35 6.74 13.94 6.39 16.38 6.05 18.82 5.71 21.27 5.38 23.72 5.04 26.18 4.75 28.65 4.45 31.13 4.21 33.62 3.97 36.12 3.81 38.63 3.65 41.13 3.57 43.63 3.49 46.13 3.47 48.62 3.45 51.12 3.49 53.61 3.52 56.11 3.6 58.6 3.68 61.09 3.8 63.57 3.93 66.04 4.07 68.51 4.2 70.99 4.37 73.47 4.53 75.96 4.74 78.45 4.95 80.92 5.21 83.4 5.48 85.86 5.74 88.32 6.01 90.75 6.25 93.17 6.48 95.61 6.68 98.05 6.88 100.5 7.04 102.95 7.19 105.37 7.29 107.78 7.38 110.24 7.47 112.69 7.55 115.16 7.59 117.63 7.64 120.04 7.62 122.45 7.61 124.87 7.51 127.3 7.41 129.72 7.2 132.14 6.99 134.52 6.68 136.89 6.38 139.3 5.99 141.72 5.61 144.14 5.17 146.56 4.73 148.95 4.26 151.34 3.8 153.79 3.34 156.24 2.89 158.73 2.49 161.22 2.1 163.7 1.78 166.17 1.45 168.72 1.23 171.27 1.01 173.84 0.95 176.4 0.89 178.96 1.01 181.52 1.12 184.04 1.39 186.55 1.66 189.04 2.15 191.53 2.64 193.9 3.6 196.27 4.56 197.92 5.72 199.58 6.88 199.58 6.89 199.57 6.89 199.57 6.9 199.57 6.9 197.58 7.15 195.6 7.4 193.17 7.31 190.74 7.22 188.34 6.94 185.95 6.65 183.58 6.39 181.21 6.14 178.82 6.03 176.43 5.91 174.04 5.97 171.65 6.02 169.21 6.24 166.77 6.45 164.38 6.76 161.98 7.07 159.56 7.46 157.13 7.85 154.72 8.29 152.3 8.74 149.89 9.21 147.48 9.67 145.01 10.12 142.54 10.57 140.06 10.97 137.58 11.37 135.1 11.68 132.63 12 130.09 12.22 127.56 12.44 125.04 12.54 122.52 12.65 120.04 12.66 117.56 12.67 115.05 12.62 112.54 12.58 110.06 12.5 107.58 12.42 105.13 12.31 102.67 12.21 100.16 12.05 97.66 11.9 95.17 11.69 92.69 11.49 90.24 11.25 87.79 11 85.32 10.73 82.85 10.46 80.42 10.2 77.99 9.94 75.56 9.73 73.12 9.52 70.67 9.36 68.22 9.19 65.76 9.05 63.3 8.9 60.85 8.77 58.4 8.64 55.96 8.55 53.51 8.46 51.07 8.41 48.62 8.36 46.17 8.36 43.73 8.36 41.29 8.41 38.85 8.46 36.42 8.57 33.99 8.69 31.56 8.87 29.12 9.06 26.68 9.28 24.24 9.51 21.78 9.75 19.33 10 16.85 10.22 14.37 10.45 11.78 10.65 9.19 10.85 7.62 10.98 6.05 11.11 3.56 10.52 1.07 9.94 1.07 9.93 Z" fill="#000"/></svg>